<svg width="1360" height="961" viewBox="0 0 1360 961" fill="none" xmlns="http://www.w3.org/2000/svg">
<g clip-path="url(#clip0_284_49798)">
<g opacity="0.3">
<path d="M1121.95 1184.26C1171.55 1129.3 1143.13 1057.47 1103.49 1005.08C862.529 686.641 351.37 715.819 21.9481 280.481C-79.2021 146.809 -124.487 -14.1088 -32.8366 -201.513" stroke="#7E7F87" stroke-miterlimit="10"/>
<path d="M-30.5 -201.251C-120.84 -15.6499 -76.3112 144.622 23.4721 276.488C208.979 521.64 469.047 610.168 688.915 711.658C854.504 788.066 998.292 866.763 1099.89 1004.56C1115.56 1025.98 1129.63 1050.23 1138.04 1075.12C1150.65 1112.64 1150.86 1151.44 1124.46 1184.39" stroke="#7E7F87" stroke-miterlimit="10"/>
<path d="M-28.3582 -201.249C-117.193 -17.1922 -73.4201 142.434 24.9963 272.494C207.574 513.775 479.573 593.685 696.335 699.552C861.105 779.825 996.024 864.825 1095.92 1003.91C1111.42 1025.46 1125.52 1050.09 1134.46 1074.98C1148.17 1112.89 1149.99 1151.69 1126.77 1184.27" stroke="#7E7F87" stroke-miterlimit="10"/>
<path d="M-26.2165 -201.245C-113.375 -18.8619 -70.5288 140.248 26.5207 268.501C206.17 505.911 489.928 577.331 703.56 687.189C867.341 771.456 993.706 862.115 1092.12 1003.13C1107.48 1025.19 1121.58 1049.83 1130.88 1074.85C1145.32 1113.02 1149.11 1151.95 1129.08 1184.14" stroke="#7E7F87" stroke-miterlimit="10"/>
<path d="M-24.0752 -201.242C-109.924 -20.6615 -67.6631 137.674 28.2148 264.379C204.935 497.918 500.819 560.977 711.32 674.827C874.282 762.96 991.948 859.793 1088.49 1002.22C1103.51 1024.54 1117.8 1049.44 1127.47 1074.59C1142.65 1113.02 1148.38 1151.69 1131.59 1184.28" stroke="#7E7F87" stroke-miterlimit="10"/>
<path d="M-21.9328 -201.239C-106.106 -22.3313 -64.7711 135.487 29.7398 260.386C203.531 490.054 511.175 544.623 718.741 662.722C880.909 755.107 989.851 857.728 1084.72 1001.83C1099.76 1024.54 1113.72 1049.69 1124.09 1074.71C1140.19 1113.66 1147.7 1152.21 1134.09 1184.41" stroke="#7E7F87" stroke-miterlimit="10"/>
<path d="M-19.7914 -201.236C-102.459 -23.8732 -61.88 133.3 31.2641 256.392C201.931 481.932 521.726 528.527 726.161 650.616C887.341 746.996 987.388 855.533 1080.92 1001.05C1095.63 1024.02 1109.58 1049.17 1120.51 1074.58C1137.34 1113.78 1146.82 1152.46 1136.41 1184.28" stroke="#7E7F87" stroke-miterlimit="10"/>
<path d="M-17.6497 -201.233C-98.8118 -25.4148 -58.9888 131.113 32.7884 252.399C200.526 474.067 532.276 512.43 733.581 638.511C893.967 739.143 985.095 853.21 1076.95 1000.4C1091.51 1023.88 1105.46 1049.03 1116.93 1074.44C1134.86 1114.04 1146.12 1152.59 1138.72 1184.16" stroke="#7E7F87" stroke-miterlimit="10"/>
<path d="M-15.3126 -200.972C-94.7992 -26.8263 -55.9274 128.798 34.4829 248.277C199.291 466.075 543.193 496.464 741.171 626.278C900.568 730.904 982.998 851.145 1073.16 999.624C1087.54 1023.23 1101.52 1048.77 1113.55 1074.57C1132.21 1114.42 1145.24 1152.85 1141.42 1184.55" stroke="#7E7F87" stroke-miterlimit="10"/>
<path d="M-13.1707 -200.969C-91.3471 -28.6264 -53.0359 126.61 36.0075 244.283C197.887 458.21 553.744 480.367 748.592 614.172C907.195 723.05 980.705 848.821 1069.55 999.103C1083.8 1023.23 1097.77 1048.77 1110.34 1074.56C1129.92 1114.93 1144.73 1153.23 1143.93 1184.68" stroke="#7E7F87" stroke-miterlimit="10"/>
<path d="M-11.0299 -200.966C-87.5308 -30.2966 -50.1455 124.423 37.531 240.29C196.481 450.346 564.489 464.529 756.181 601.939C913.991 715.069 978.777 846.628 1065.75 998.324C1079.66 1022.7 1093.83 1048.5 1106.76 1074.43C1127.08 1115.06 1144.03 1153.36 1146.24 1184.55" stroke="#7E7F87" stroke-miterlimit="10"/>
<path d="M-8.71764 -201.091C-83.7131 -31.9659 -47.0836 122.108 39.226 236.168C195.247 442.354 575.04 448.434 763.772 589.706C920.788 707.088 976.485 844.305 1061.96 997.546C1075.88 1022.31 1089.89 1048.24 1103.35 1074.16C1124.76 1115.18 1143.32 1153.49 1148.72 1184.3" stroke="#7E7F87" stroke-miterlimit="10"/>
<path d="M-6.57592 -201.088C-80.0659 -33.5077 -44.2175 119.534 40.9205 232.046C193.817 434.103 585.786 432.596 771.362 577.472C927.61 699.493 974.387 842.24 1058.52 996.897C1072.11 1021.92 1086.14 1048.23 1100.14 1074.16C1122.28 1115.44 1142.62 1153.62 1151.59 1184.56" stroke="#7E7F87" stroke-miterlimit="10"/>
<path d="M-4.43441 -201.086C-76.419 -35.0499 -41.3264 117.347 42.4447 228.052C192.413 426.238 596.362 416.885 778.782 565.366C933.871 691.51 971.924 840.044 1054.56 996.246C1068 1021.79 1082.03 1048.1 1096.56 1074.03C1119.44 1115.56 1141.91 1153.74 1153.9 1184.44" stroke="#7E7F87" stroke-miterlimit="10"/>
<path d="M-2.29269 -201.082C-72.797 -36.9773 -38.4353 115.16 43.9689 224.059C191.008 418.374 606.768 401.305 786.007 553.004C940.498 683.658 969.631 837.722 1050.56 995.21C1063.83 1020.88 1077.89 1047.58 1092.79 1073.63C1116.76 1115.56 1140.84 1153.74 1155.85 1184.18" stroke="#7E7F87" stroke-miterlimit="10"/>
<path d="M-0.150959 -201.08C-68.9797 -38.6479 -35.5439 112.973 45.4934 220.066C189.603 410.51 617.54 385.854 793.428 540.898C946.979 676.32 967.168 835.527 1046.79 994.818C1059.92 1021 1073.97 1047.7 1089.41 1073.76C1114.11 1115.94 1140.16 1154.26 1158.36 1184.31" stroke="#7E7F87" stroke-miterlimit="10"/>
<path d="M1.99056 -201.077C-65.3327 -40.19 -32.6529 110.785 47.0175 216.072C188.198 402.645 627.945 370.272 801.018 528.664C953.606 668.467 965.071 833.461 1042.99 994.038C1055.78 1020.48 1070.03 1047.44 1085.83 1073.62C1111.62 1116.19 1139.26 1154.13 1160.86 1184.45" stroke="#7E7F87" stroke-miterlimit="10"/>
<path d="M4.32737 -200.815C-61.4904 -41.4728 -29.5917 108.47 48.7118 211.95C186.768 394.395 638.521 354.563 808.608 516.431C960.427 660.873 962.948 831.01 1039.36 993.131C1051.81 1019.83 1066.25 1047.05 1082.59 1073.23C1109.12 1116.06 1138.72 1154.13 1163.52 1184.06" stroke="#7E7F87" stroke-miterlimit="10"/>
<path d="M6.46916 -200.812C-57.8684 -43.4012 -26.7003 106.283 50.2364 207.957C185.364 386.53 648.927 338.982 816.028 504.326C966.714 653.277 960.68 829.073 1035.59 992.739C1048.06 1019.82 1062.33 1047.17 1079.04 1073.49C1106.49 1116.83 1137.87 1154.77 1165.68 1184.45" stroke="#7E7F87" stroke-miterlimit="10"/>
<path d="M8.61122 -200.81C-54.2209 -44.943 -23.8086 104.096 51.7611 203.963C183.959 378.666 659.163 323.53 823.449 492.22C973.196 645.939 958.218 826.878 1031.62 992.089C1043.75 1019.43 1058.22 1047.03 1075.46 1073.35C1103.81 1116.83 1136.97 1154.64 1168 1184.33" stroke="#7E7F87" stroke-miterlimit="10"/>
<path d="M10.7523 -200.806C-50.4042 -46.6124 -20.7479 101.781 53.4549 199.842C182.724 370.674 669.934 308.079 831.038 479.987C979.652 638.216 956.119 824.814 1027.99 991.182C1039.98 1019.04 1054.45 1046.64 1072.05 1073.09C1101.33 1117.08 1136.27 1154.77 1170.67 1184.33" stroke="#7E7F87" stroke-miterlimit="10"/>
<path d="M12.8943 -200.803C-46.7568 -48.1541 -18.0515 99.3356 54.9797 195.848C181.32 362.809 680.17 292.627 838.459 467.882C985.964 631.007 953.657 822.619 1024.22 990.79C1035.87 1018.9 1050.53 1046.77 1068.5 1073.34C1098.68 1117.46 1135.42 1155.41 1173.01 1184.59" stroke="#7E7F87" stroke-miterlimit="10"/>
<path d="M15.0362 -200.8C-43.1094 -49.6953 -15.16 97.1489 56.5043 191.855C179.72 354.687 690.236 277.303 846.05 455.649C992.421 623.283 951.56 820.554 1020.42 990.012C1032.09 1018.51 1046.59 1046.5 1065.09 1073.08C1096.2 1117.72 1134.88 1155.41 1175.49 1184.34" stroke="#7E7F87" stroke-miterlimit="10"/>
<path d="M17.1777 -200.797C-39.4877 -51.6235 -12.269 94.962 58.0284 187.862C178.315 346.823 700.472 261.851 853.47 443.544C998.732 616.074 948.731 818.23 1016.62 989.233C1027.95 1017.99 1042.64 1046.24 1061.52 1072.95C1093.52 1117.72 1133.81 1155.41 1177.83 1184.6" stroke="#7E7F87" stroke-miterlimit="10"/>
<path d="M19.319 -200.794C-35.8409 -53.1652 -9.20794 92.646 59.5273 183.481C176.885 338.572 710.487 245.754 860.864 431.052C1004.82 608.22 946.608 815.778 1012.82 988.454C1024.01 1017.73 1038.7 1045.98 1058.11 1072.68C1091.04 1117.97 1133.1 1155.54 1180.31 1184.34" stroke="#7E7F87" stroke-miterlimit="10"/>
<path d="M21.4609 -200.791C-32.0235 -54.835 -6.51204 90.2012 61.0516 179.488C175.48 330.708 720.553 230.431 868.089 418.689C1010.57 600.624 943.95 813.326 1008.66 987.546C1019.51 1017.08 1034.39 1045.58 1054.16 1072.42C1088 1117.84 1132.03 1155.53 1182.26 1184.09" stroke="#7E7F87" stroke-miterlimit="10"/>
<path d="M23.6026 -200.788C-28.3763 -56.3773 -3.62068 88.0135 62.5761 175.494C174.076 322.843 730.619 215.107 875.51 406.583C1040.71 624.897 910.162 886.357 1050.95 1072.41C1085.71 1118.35 1131.52 1155.92 1184.93 1184.09" stroke="#7E7F87" stroke-miterlimit="10"/>
</g>
</g>
<defs>
<clipPath id="clip0_284_49798">
<rect width="1360" height="961" fill="white" transform="matrix(-1 0 0 1 1360 0)"/>
</clipPath>
</defs>
</svg>
