<svg width="65" height="22" viewBox="0 0 65 22" fill="none" xmlns="http://www.w3.org/2000/svg">
<path d="M47.8645 7.69744C51.3776 5.66948 54.8162 3.69236 58.2458 1.70071C59.4004 1.03077 60.6041 0.765704 61.8968 1.17783C63.6071 1.72249 64.6746 2.89171 64.9397 4.66367C65.2247 6.57907 64.4949 8.11502 62.83 9.10631C60.1612 10.6949 57.4578 12.2236 54.7672 13.7759C51.4302 15.7022 48.0878 17.623 44.7563 19.5602C43.4291 20.3318 42.0166 20.7112 40.4789 20.7076C35.3953 20.6949 30.3118 20.6767 25.2283 20.7167C23.4818 20.7312 21.8532 20.4117 20.33 19.5602C20.1357 19.4513 19.9269 19.3696 19.6074 19.2207C19.6074 19.7091 19.6147 20.1248 19.6056 20.5406C19.5856 21.403 19.1807 21.7879 18.2693 21.7897C15.546 21.7951 12.8227 21.7933 10.0994 21.7897C9.08633 21.7879 8.72322 21.412 8.71415 20.3845C8.71233 20.1593 8.71415 19.9342 8.71415 19.6128C8.44363 19.6128 8.20398 19.6128 7.96433 19.6128C5.78568 19.6128 3.60703 19.6147 1.42838 19.611C0.362655 19.6092 0.00136166 19.2479 0.00136166 18.1804C-0.000453885 13.3238 -0.000453885 8.46723 0.00136166 3.61066C0.00136166 2.5413 0.360839 2.18364 1.43019 2.18364C3.83215 2.18001 6.2323 2.18183 8.71596 2.18183C8.71596 1.80056 8.70144 1.46832 8.71959 1.13608C8.75409 0.447988 9.14625 0.015886 9.82707 0.0122549C12.7083 -0.00408497 15.5914 -0.00408497 18.4727 0.0122549C19.1862 0.015886 19.5802 0.451617 19.602 1.1851C19.6183 1.74973 19.6056 2.31436 19.6056 2.95888C20.9854 2.61756 22.3234 2.36883 23.607 1.95307C26.0526 1.1615 28.42 1.28858 30.8801 2.00391C35.5134 3.34922 40.1938 4.52569 44.8598 5.75663C46.0617 6.07435 47.111 6.59723 47.8645 7.69744ZM19.6092 5.2047C19.6092 5.49882 19.6092 5.74574 19.6092 5.99446C19.6092 9.26244 19.6383 12.5286 19.5874 15.7948C19.5765 16.5446 19.8035 16.9077 20.4789 17.2127C21.8187 17.8209 23.086 18.5435 24.6383 18.5344C29.9705 18.5035 35.3028 18.5544 40.6332 18.4908C41.5482 18.4799 42.5649 18.2512 43.3547 17.8046C49.4894 14.3351 55.5824 10.7911 61.6808 7.25627C62.801 6.6063 63.1423 5.31001 62.5359 4.26425C61.9349 3.22939 60.6169 2.86992 59.513 3.49991C55.9909 5.51153 52.4796 7.54312 48.9738 9.58561C48.8013 9.68546 48.6234 9.96324 48.6288 10.1521C48.6924 12.6702 46.2033 15.1611 43.0061 14.3006C38.785 13.1622 34.562 12.0384 30.3409 10.9055C29.5675 10.6967 29.2243 10.1811 29.395 9.51843C29.5584 8.88299 30.1375 8.60522 30.9128 8.81037C32.7519 9.29512 34.5892 9.78895 36.4284 10.281C38.8122 10.92 41.1924 11.5754 43.5816 12.2C45.1938 12.623 46.5791 11.4865 46.4338 9.89243C46.3485 8.94472 45.7294 8.27479 44.5947 7.96977C39.7617 6.66803 34.9269 5.37718 30.0922 4.07907C28.8667 3.75046 27.6412 3.27842 26.3576 3.56346C24.1118 4.06455 21.8805 4.64915 19.6092 5.2047ZM17.3743 19.5983C17.3743 13.8104 17.3743 8.02606 17.3743 2.23085C15.2138 2.23085 13.0751 2.23085 10.9454 2.23085C10.9454 8.04603 10.9454 13.814 10.9454 19.5983C13.1023 19.5983 15.2102 19.5983 17.3743 19.5983ZM8.66876 17.4033C8.66876 13.0333 8.66876 8.71596 8.66876 4.41676C6.48103 4.41676 4.34232 4.41676 2.21632 4.41676C2.21632 8.77224 2.21632 13.0714 2.21632 17.4033C4.37319 17.4033 6.49737 17.4033 8.66876 17.4033Z" fill="black"/>
</svg>
