<svg width="33" height="33" viewBox="0 0 33 33" fill="none" xmlns="http://www.w3.org/2000/svg">
<path d="M0.00403953 16.4735C0.00403953 15.4434 -0.00512514 14.4114 0.00587293 13.3812C0.015038 12.5216 0.414634 12.1165 1.26698 12.1073C2.43461 12.0945 3.60407 12.1146 4.76987 12.0926C4.95867 12.089 5.20063 11.9753 5.31061 11.8305C5.3656 11.7572 5.22262 11.4621 5.09798 11.3356C4.30062 10.5144 3.4776 9.71704 2.6729 8.90135C2.00019 8.21947 1.99469 7.68056 2.66374 7.00602C4.09899 5.55794 5.54157 4.11902 6.98782 2.68194C7.68619 1.98906 8.21593 2.00006 8.93447 2.7076C9.70067 3.46464 10.4449 4.24183 11.2221 4.98604C11.3944 5.15101 11.6657 5.2115 11.8911 5.32148C11.9608 5.09968 12.0854 4.87972 12.0891 4.6561C12.1092 3.53429 12.0909 2.41249 12.1019 1.28885C12.1093 0.425503 12.5088 0.0130758 13.3557 0.00757673C15.4398 -0.00342134 17.524 -0.00158833 19.6081 0.00757673C20.4971 0.0112428 20.8875 0.420005 20.8949 1.32735C20.904 2.40332 20.882 3.48113 20.9077 4.55711C20.915 4.8174 21.0617 5.07219 21.146 5.33064C21.3678 5.20966 21.6299 5.12901 21.8059 4.96038C22.5812 4.21434 23.3273 3.43714 24.0935 2.68194C24.7772 2.00739 25.3179 1.99639 25.9906 2.66178C27.4552 4.11169 28.9125 5.57077 30.3605 7.03535C30.9929 7.67507 30.9838 8.2268 30.3422 8.88302C29.5724 9.66755 28.7768 10.4264 28.0161 11.2201C27.8512 11.3924 27.7888 11.6619 27.677 11.8873C27.9208 11.9588 28.1609 12.0871 28.4066 12.0926C29.4825 12.1146 30.5585 12.0981 31.6363 12.1036C32.5858 12.1091 32.9891 12.4959 32.9928 13.4234C33.0001 15.4837 33.0019 17.5458 32.9928 19.6061C32.9891 20.4952 32.5803 20.8892 31.6748 20.8966C30.575 20.9057 29.4752 20.8856 28.3772 20.9094C28.1389 20.9149 27.9043 21.0597 27.6679 21.1422C27.7888 21.364 27.8677 21.628 28.0363 21.8039C28.7658 22.5628 29.5265 23.2923 30.2671 24.042C31.0076 24.7899 31.0149 25.3086 30.2872 26.04C28.8831 27.4533 27.4754 28.8629 26.0621 30.2669C25.3124 31.013 24.7735 31.0001 24.0092 30.2376C23.2301 29.4604 22.4639 28.6722 21.6721 27.9115C21.5364 27.7814 21.2835 27.6916 21.1057 27.7191C21.0122 27.7337 20.9077 28.0417 20.904 28.2176C20.8857 29.3633 20.9004 30.5071 20.893 31.6527C20.8875 32.5967 20.4971 32.9926 19.5568 32.9945C17.5185 33.0018 15.4802 33.0018 13.4418 32.9945C12.496 32.9908 12.1038 32.6004 12.0983 31.6619C12.0909 30.5162 12.1074 29.3706 12.0854 28.2268C12.0818 28.038 11.9681 27.7979 11.8251 27.6861C11.7536 27.6311 11.4585 27.7777 11.3302 27.9005C10.5255 28.6814 9.74283 29.4879 8.94547 30.2761C8.20677 31.0075 7.68253 31.0093 6.94749 30.2798C5.53424 28.8757 4.12465 27.4661 2.72056 26.0547C1.98553 25.3141 1.98369 24.7917 2.7114 24.0585C3.50143 23.2612 4.30795 22.4803 5.08515 21.6719C5.21529 21.5363 5.30511 21.2833 5.27945 21.1037C5.26662 21.0139 4.955 20.9094 4.7772 20.9076C3.63157 20.8892 2.48777 20.9039 1.34214 20.8966C0.398138 20.8911 0.00770617 20.5025 0.000374118 19.5621C-0.00145889 18.5357 0.00403953 17.5055 0.00403953 16.4735ZM24.9825 4.90538C24.3116 5.58177 23.6041 6.29481 22.8965 7.00602C21.8645 8.0435 21.8297 8.04717 20.4678 7.43861C20.2588 7.34512 20.048 7.25714 19.8336 7.17832C18.8382 6.81172 18.7044 6.62658 18.7026 5.57627C18.7008 4.46363 18.7026 3.35099 18.7026 2.24019C17.1922 2.24019 15.7808 2.24019 14.3034 2.24019C14.3034 3.34366 14.3034 4.41414 14.3034 5.48462C14.3034 6.64491 14.1952 6.79705 13.1284 7.19482C12.8498 7.2993 12.5785 7.42028 12.309 7.54859C11.3266 8.01417 11.0736 7.97385 10.3166 7.21681C9.52837 6.43228 8.74017 5.64775 8.0033 4.91455C6.94199 5.96853 5.93933 6.96569 4.88718 8.01234C5.56356 8.68139 6.26378 9.36877 6.95849 10.0616C8.05646 11.1541 8.05463 11.1578 7.43507 12.5399C7.35075 12.7268 7.27193 12.9175 7.19861 13.1099C6.79352 14.1933 6.63954 14.3032 5.50124 14.3032C4.41243 14.3032 3.32179 14.3032 2.23848 14.3032C2.23848 15.8155 2.23848 17.2269 2.23848 18.7025C3.16049 18.7025 4.05683 18.7813 4.93301 18.6841C6.25644 18.5375 7.11612 18.9463 7.37825 20.3228C7.39841 20.4328 7.46806 20.5318 7.51572 20.6363C8.0198 21.7049 7.98681 21.9194 7.16378 22.7388C6.39209 23.5068 5.61672 24.2712 4.90368 24.9787C5.97416 26.0583 6.97132 27.061 8.00514 28.104C8.67235 27.4349 9.36706 26.7421 10.0599 26.0473C11.1524 24.9512 11.1543 24.9512 12.5382 25.5708C12.7251 25.6551 12.9158 25.7339 13.1082 25.8072C14.1934 26.2123 14.2997 26.3626 14.2997 27.5046C14.2997 28.5934 14.2997 29.684 14.2997 30.7674C15.8119 30.7674 17.2234 30.7674 18.6989 30.7674C18.6989 29.64 18.6989 28.5457 18.6989 27.4533C18.6989 26.3865 18.8346 26.1977 19.8097 25.8347C20.1085 25.7229 20.4036 25.5946 20.6932 25.459C21.6776 24.9952 21.9287 25.0355 22.6857 25.7926C23.4721 26.5789 24.2603 27.3634 24.9898 28.0912C26.0511 27.0298 27.0501 26.0308 28.1188 24.9604C27.4369 24.2968 26.711 23.6021 25.9961 22.8964C24.9458 21.8571 24.9477 21.8443 25.5636 20.4677C25.657 20.2587 25.745 20.0479 25.8238 19.8334C26.1923 18.8363 26.3737 18.7043 27.4259 18.7043C28.5385 18.7025 29.6512 18.7043 30.762 18.7043C30.762 17.1939 30.762 15.7825 30.762 14.3051C29.6585 14.3051 28.588 14.3051 27.5175 14.3051C26.3554 14.3051 26.2069 14.1988 25.8073 13.1319C25.7029 12.8533 25.5801 12.582 25.4536 12.3126C24.988 11.3246 25.0247 11.0771 25.7853 10.3201C26.5735 9.53557 27.3654 8.75288 28.0986 8.02517C27.0281 6.95286 26.0291 5.95203 24.9825 4.90538Z" fill="black"/>
</svg>
