<svg width="18" height="20" viewBox="0 0 18 20" fill="none" xmlns="http://www.w3.org/2000/svg">
<path d="M8.69505 15.1546C12.3952 15.1546 15.6308 16.7459 17.3908 19.1197L15.5299 20C14.0975 18.3024 11.5718 17.1752 8.69505 17.1752C5.81827 17.1752 3.29255 18.3024 1.86021 20L0 19.1188C1.76015 16.7455 4.99536 15.1546 8.69505 15.1546ZM8.69505 0C11.4849 0 13.7466 2.26165 13.7466 5.05152V8.08243C13.7466 10.8723 11.4849 13.134 8.69505 13.134C5.90515 13.134 3.6435 10.8723 3.6435 8.08243V5.05152C3.6435 2.26165 5.90515 0 8.69505 0Z" fill="white"/>
</svg>
