<svg width="31" height="39" viewBox="0 0 31 39" fill="none" xmlns="http://www.w3.org/2000/svg">
<path d="M12.3701 13.9581C12.6207 13.9581 12.8106 13.9581 12.9991 13.9581C17.9381 13.9581 22.8771 13.9542 27.8148 13.9607C29.6644 13.9633 31.0593 15.393 30.9934 17.1922C30.9495 18.4115 30.1345 19.5287 28.9734 19.9601C28.8119 20.0195 28.6453 20.0686 28.356 20.1628C29.2575 20.3992 29.9421 20.7854 30.4187 21.4686C30.8914 22.1467 31.0929 22.8984 30.9598 23.7147C30.7131 25.222 29.6683 26.139 27.8445 26.3999C27.9362 26.5859 27.9737 26.8003 28.1016 26.8984C29.2446 27.7793 29.7135 28.9236 29.3131 30.3095C28.9127 31.6915 27.9065 32.4212 26.4742 32.5607C26.4445 32.5633 26.4161 32.584 26.2753 32.6421C26.3928 32.8229 26.4651 33.0257 26.6085 33.1393C27.7335 34.028 28.1661 35.3363 27.7361 36.624C27.3021 37.9259 26.141 38.7538 24.7086 38.7551C18.5439 38.759 12.3779 38.759 6.21318 38.7551C4.72399 38.7538 3.31875 38.3379 1.92901 37.851C1.29226 37.6276 0.651639 37.4171 0.000682912 37.1962C0.000682912 36.9908 0.000682912 36.8139 0.000682912 36.6382C0.000682912 30.7951 -0.00448262 24.9533 0.0135995 19.1102C0.0148911 18.8028 0.144048 18.4515 0.320994 18.1958C1.69136 16.2209 3.05914 14.2448 4.48375 12.31C5.90966 10.374 6.6846 8.21444 6.97908 5.84827C7.21932 3.91478 7.5138 1.98774 7.79278 0C9.72498 0.149823 11.6094 0.44947 13.065 1.89991C14.2081 3.03779 14.3243 4.46111 14.0027 5.95418C13.5571 8.01683 13.0883 10.0756 12.6478 12.1396C12.5251 12.7169 12.467 13.3097 12.3701 13.9581ZM12.3882 18.8829C12.2759 18.9333 12.1738 18.9785 12.0731 19.025C9.45633 20.2093 8.49282 23.3543 10.0375 25.7476C10.9429 27.1503 12.2655 27.849 13.9317 27.9084C14.6846 27.9356 15.2374 28.3605 15.4389 29.0489C15.6197 29.6624 15.3873 30.3314 14.8448 30.7138C14.3566 31.0573 13.8257 31.1154 13.2884 30.8494C12.7202 30.5691 12.436 30.0951 12.3986 29.457C12.343 28.5129 11.6469 27.8632 10.7647 27.911C9.9058 27.9575 9.28326 28.6576 9.3078 29.581C9.33751 30.7047 9.70044 31.7251 10.4961 32.5155C11.0359 33.0515 11.6985 33.4635 12.3068 33.9298C12.3895 33.9052 12.3986 33.9685 12.4024 34.0331C12.4502 34.9824 13.0611 35.6373 13.9174 35.6566C14.7789 35.676 15.4066 35.047 15.5164 34.108C15.5345 33.9543 15.7076 33.7606 15.8574 33.6883C17.8852 32.7131 18.9326 30.6737 18.5013 28.4987C18.0892 26.4231 16.2449 24.8965 14.044 24.8112C13.0792 24.7738 12.4076 24.1383 12.405 23.2626C12.4037 22.4412 13.0728 21.7424 13.8916 21.7114C14.7699 21.6779 15.4351 22.3275 15.5035 23.2846C15.5694 24.1952 16.2552 24.8409 17.1167 24.8061C17.9756 24.7712 18.6356 24.0673 18.5943 23.1567C18.5103 21.2839 17.6049 19.9226 15.931 19.087C15.6469 18.9449 15.5048 18.817 15.4803 18.4618C15.4092 17.4169 14.301 16.7673 13.3492 17.1845C12.6181 17.5035 12.3663 18.1196 12.3882 18.8829Z" fill="white"/>
</svg>
