<svg width="22" height="16" viewBox="0 0 22 16" fill="none" xmlns="http://www.w3.org/2000/svg">
<path d="M8.01334 10.8466C11.3801 7.47633 14.7044 4.15559 18.0181 0.827764C18.4641 0.381694 18.9421 0.0312111 19.6005 0.00288924C20.4927 -0.0360534 21.183 0.31797 21.6008 1.10744C22.015 1.89338 21.9477 2.66869 21.4202 3.38736C21.268 3.59269 21.0839 3.77324 20.8998 3.9538C17.218 7.63918 13.5326 11.3246 9.84718 15.01C8.52667 16.3305 7.4646 16.3305 6.13701 15.0064C4.32087 13.1938 2.50827 11.3777 0.692125 9.56507C0.0832044 8.95615 -0.14337 8.2304 0.090286 7.39845C0.316861 6.58773 0.879758 6.08856 1.69755 5.91155C2.50473 5.73454 3.16675 6.03546 3.72965 6.59835C5.00059 7.8693 6.27154 9.13671 7.54249 10.4077C7.6841 10.5457 7.82925 10.6767 8.01334 10.8466Z" fill="#329DF9"/>
</svg>
