<svg width="50" height="59" viewBox="0 0 50 59" fill="none" xmlns="http://www.w3.org/2000/svg">
<path d="M25.1736 0C25.7247 0.40304 26.3172 0.761298 26.8167 1.21945C31.0883 5.12584 36.097 7.44418 41.8222 8.18481C43.5136 8.40183 45.2257 8.47417 46.9343 8.55685C48.6395 8.63952 49.3835 9.35604 49.3973 11.0509C49.4317 14.8953 49.5213 18.7396 49.4834 22.5806C49.4386 27.2207 48.9908 31.8229 47.7851 36.3253C45.3325 45.4953 39.776 52.1403 31.3363 56.3877C29.4727 57.3247 27.5126 58.0756 25.5697 58.8369C25.1081 59.0195 24.4777 59.0608 24.0161 58.8989C19.6309 57.3901 15.5247 55.3474 11.8939 52.4159C6.93687 48.4096 3.69189 43.2872 1.89026 37.2106C0.743149 33.3386 0.147201 29.3668 0.0576361 25.3467C-0.0491522 20.4689 0.0231881 15.5877 0.0335224 10.7064C0.0369672 9.42493 0.88094 8.64641 2.25885 8.57063C3.73667 8.4914 5.21793 8.46384 6.6854 8.30882C12.731 7.67154 18.0498 5.37387 22.5624 1.25735C23.0791 0.785411 23.6854 0.416819 24.2504 0C24.557 0 24.867 0 25.1736 0ZM4.17071 12.756C4.16038 12.9421 4.14315 13.1315 4.14315 13.321C4.11215 15.8185 4.06392 18.3159 4.05359 20.8134C4.03981 25.1607 4.28439 29.4839 5.21793 33.752C6.34093 38.8951 8.54559 43.4629 12.2832 47.228C15.7486 50.7176 19.9513 53.0152 24.5225 54.6963C24.6775 54.7514 24.9049 54.717 25.0599 54.6446C27.2129 53.6388 29.4348 52.75 31.4879 51.5719C35.973 48.9986 39.4557 45.4161 41.7843 40.7553C44.051 36.2185 44.9708 31.3407 45.1947 26.3492C45.3876 21.995 45.267 17.6304 45.2842 13.2693C45.2842 13.0833 45.2601 12.8973 45.2463 12.7181C43.7547 12.5494 42.3045 12.4185 40.8646 12.2187C35.0153 11.416 29.8034 9.13902 25.2838 5.33253C24.8498 4.96738 24.5983 4.95016 24.1539 5.32564C19.9823 8.84965 15.194 11.0853 9.8236 12.0189C7.97375 12.3392 6.09635 12.508 4.17071 12.756Z" fill="black"/>
</svg>
