<svg width="11" height="20" viewBox="0 0 11 20" fill="none" xmlns="http://www.w3.org/2000/svg">
<path d="M4.17445 2.35909C4.17445 2.08264 4.15602 1.62188 4.17445 1.16112C4.19288 0.460761 4.59835 0.0184304 5.18812 0C5.74103 0 6.29394 0.44233 6.20179 1.06896C6.05435 2.17479 6.51511 2.59869 7.51035 2.912C8.28443 3.1516 8.98478 3.74137 9.64828 4.25742C10.2012 4.68132 10.2196 5.32639 9.81415 5.76872C9.40868 6.21105 8.80048 6.21105 8.266 5.76872C7.36291 4.99464 6.3861 4.4233 5.15126 4.53388C4.72736 4.57074 4.28503 4.69975 3.91642 4.90249C2.49728 5.69499 2.42356 7.02198 3.80584 7.85135C4.72736 8.38583 5.75946 8.75444 6.77313 9.10462C8.28443 9.62067 9.61142 10.3395 10.109 11.9982C10.8278 14.4126 9.46397 16.6795 6.86529 17.343C6.31237 17.472 6.1465 17.6932 6.20179 18.2277C6.23865 18.541 6.22022 18.8727 6.1465 19.186C6.03592 19.739 5.64888 20.0338 5.09597 19.997C4.56149 19.9601 4.0823 19.6284 4.17445 19.0755C4.35875 17.8406 3.76898 17.4167 2.68159 16.9928C1.79693 16.6427 1.04128 15.8686 0.322494 15.1682C-0.175126 14.6706 -0.064543 14.0255 0.433078 13.6569C0.912268 13.2883 1.50204 13.362 1.94437 13.915C3.16078 15.4262 4.74579 15.7764 6.53354 15.2972C7.58407 15.0208 8.19228 14.2651 8.21071 13.362C8.24757 12.3115 7.80524 11.7033 6.64412 11.2794C5.87005 11.0029 5.04068 10.8186 4.30346 10.4685C3.49252 10.0814 2.68159 9.65753 2.01809 9.08619C0.322497 7.64862 0.248775 5.51069 1.83379 3.94411C2.49728 3.3359 3.32665 2.93043 4.17445 2.35909Z" fill="#329DF9"/>
</svg>
