<svg width="42" height="33" viewBox="0 0 42 33" fill="none" xmlns="http://www.w3.org/2000/svg">
<path d="M41.4133 17.9477C41.249 18.8059 41.103 19.7005 40.8839 20.5404C38.9485 28.2088 31.8643 33.4124 23.9586 32.9742C23.6482 32.9559 23.3013 32.9559 23.0092 32.8646C21.1468 32.2804 19.321 32.8464 17.4769 32.9559C10.7579 33.3759 4.38586 29.5599 1.55585 23.4434C-3.09997 13.4562 3.16257 1.82581 14.0992 0.164323C14.4278 0.109549 14.7747 0.0547744 15.1034 0C16.0163 0 16.9292 0 17.8421 0C19.7044 0.511227 21.585 0.566002 23.4656 0C24.4333 0 25.3827 0 26.3504 0C26.8616 0.0912906 27.3728 0.182581 27.8841 0.273872C30.4402 0.730325 32.759 1.75278 34.8222 3.32298C35.4977 3.83421 35.589 4.61931 35.0413 5.0575C34.5118 5.47744 34.0371 5.29486 33.5441 4.92969C32.0469 3.79769 30.4037 2.99433 28.5961 2.51962C27.3363 2.19098 26.04 1.99014 24.5976 2.06317C30.0203 5.47744 32.9781 10.2428 32.9781 16.5236C32.9781 22.8044 29.9838 27.5333 24.5794 30.9293C26.7521 30.9658 28.6874 30.5824 30.5315 29.7973C38.8024 26.2552 41.8698 16.2862 37.0497 8.69087C36.5202 7.86925 36.5567 7.26673 37.1227 6.90157C37.7069 6.53641 38.2547 6.75551 38.7842 7.59538C39.7336 9.09255 40.4639 10.681 40.8656 12.3973C41.0664 13.2737 41.2308 14.1683 41.3951 15.063C41.4133 16.0306 41.4133 16.9801 41.4133 17.9477ZM2.06708 16.5053C2.06708 24.4841 8.53046 30.9658 16.5093 30.9475C24.4333 30.9475 30.9149 24.4841 30.9514 16.5419C30.988 8.61783 24.4698 2.06317 16.5093 2.06317C8.54871 2.04491 2.06708 8.52654 2.06708 16.5053Z" fill="#329DF9"/>
</svg>
