<svg width="70" height="34" viewBox="0 0 70 34" fill="none" xmlns="http://www.w3.org/2000/svg">
<path d="M70.0001 7.89666C69.4349 9.8109 68.0858 10.9594 66.281 11.6887C64.5855 12.3814 62.9083 13.2018 61.2128 13.8764C60.8847 14.004 60.356 13.9128 60.046 13.7123C59.8273 13.5665 59.6814 13.0378 59.7726 12.7643C59.8637 12.4544 60.2101 12.1444 60.5383 11.9986C62.3249 11.16 64.1662 10.3943 65.9528 9.55566C66.4998 9.30043 67.0102 8.91758 67.4295 8.48004C68.0494 7.84196 68.1223 7.05804 67.7212 6.27411C67.3384 5.50842 66.7003 5.12557 65.8434 5.16203C65.4971 5.18026 65.1689 5.23495 64.8408 5.32611C60.6294 6.5658 56.4181 7.82373 52.225 9.09989C51.9333 9.19105 51.6234 9.40982 51.4411 9.66505C50.5295 10.9047 49.3263 11.4152 47.7949 11.0506C45.3155 10.4672 42.8361 9.86559 40.3567 9.26397C39.591 9.08166 39.2446 8.5712 39.4087 7.95135C39.5728 7.36796 40.1015 7.11273 40.8307 7.27681C43.219 7.84196 45.6072 8.42535 47.9955 8.99051C48.9252 9.20928 49.3992 9.0452 49.7638 8.40712C50.1832 7.65966 50.092 6.67519 49.5086 6.12827C49.2898 5.9095 48.9981 5.74542 48.7065 5.6178C46.2635 4.63334 43.8024 3.6671 41.3594 2.68264C39.2993 1.84402 37.1299 2.20863 35.0151 2.17217C31.6606 2.11748 28.7801 3.46656 26.0273 5.19849C25.2616 5.69073 24.4959 6.18296 23.6573 6.72988C25.0975 9.88382 26.5742 13.0924 28.0509 16.3375C28.8531 16.0458 29.6005 15.7359 30.3662 15.4807C33.5931 14.3321 36.8017 14.2045 40.0103 15.5718C41.6876 16.2828 43.383 16.9392 45.1332 17.4496C46.5005 17.8507 47.8861 17.5772 49.1987 16.9938C51.3682 16.0094 53.5741 15.0614 55.7436 14.0769C56.254 13.8399 56.728 13.8399 57.1109 14.2957C57.5484 14.8061 57.3843 15.5901 56.728 15.8818C54.2122 17.0121 51.7145 18.1789 49.1622 19.1815C47.1568 19.9655 45.0967 19.8014 43.0914 19.0175C41.797 18.5252 40.5026 18.0148 39.2264 17.4678C36.5465 16.3011 33.8665 16.4651 31.1684 17.3767C30.4391 17.6319 29.7281 17.9236 28.9625 18.2153C29.0536 18.4341 29.1083 18.6346 29.1812 18.8169C29.7828 20.2936 29.2541 21.7521 27.8139 22.4449C26.5742 23.0465 25.2981 23.6116 23.9854 24.2133C24.1313 24.5596 24.2771 24.8696 24.4047 25.1795C24.9881 26.565 24.4959 27.987 23.1286 28.6434C19.8288 30.193 16.529 31.7061 13.1928 33.1828C11.7525 33.8391 10.367 33.2558 9.69245 31.7791C7.35891 26.7109 5.04359 21.6427 2.71004 16.5745C1.92612 14.8608 1.12396 13.1289 0.340033 11.3787C-0.407432 9.73797 0.0848011 8.37066 1.74381 7.60496C4.86128 6.16473 7.99699 4.74272 11.1145 3.30249C12.9193 2.4821 14.2137 2.97433 15.0706 4.77918C15.1617 4.96149 15.2529 5.1438 15.3805 5.3808C16.4561 4.88857 17.5317 4.39633 18.5891 3.9041C20.5398 3.01079 21.3784 3.17487 22.8551 4.79741C23.4567 4.41457 24.0584 4.01349 24.6782 3.63064C26.9206 2.20863 29.2177 0.82309 31.8612 0.440242C35.9631 -0.143145 40.065 -0.434837 43.9847 1.46117C45.5161 2.20863 47.1386 2.73733 48.7247 3.37541C51.0035 4.28695 51.3135 4.6151 52.1339 6.91219C53.6288 6.47465 55.1237 6.03711 56.6186 5.59957C59.1527 4.85211 61.6686 4.08641 64.2027 3.33895C66.992 2.50033 69.0156 3.57595 69.9089 6.3835C69.9272 6.41996 69.9636 6.45642 70.0001 6.49288C70.0001 6.98512 70.0001 7.44089 70.0001 7.89666ZM22.6546 26.3827C22.5087 26.0546 22.4358 25.8358 22.3447 25.6353C19.3001 18.9992 16.2556 12.3632 13.2292 5.72719C12.8464 4.88857 12.7005 4.83388 11.8802 5.21672C8.8356 6.60227 5.80929 8.00604 2.76473 9.39159C1.92612 9.77443 1.88965 9.86559 2.29073 10.7407C3.84035 14.1134 5.38998 17.4678 6.92137 20.8406C8.43453 24.1221 9.92945 27.4037 11.4426 30.7034C11.8072 31.4874 11.9166 31.5238 12.6823 31.1957C13.2292 30.9587 13.7579 30.7034 14.3049 30.4664C16.8572 29.2814 19.4277 28.1147 21.98 26.9297C22.2353 26.802 22.4358 26.565 22.6546 26.3827ZM23.1104 22.3719C24.3136 21.825 25.4257 21.3146 26.5377 20.8041C27.4311 20.3848 27.5222 20.166 27.1211 19.2909C25.9361 16.6839 24.7329 14.0951 23.5479 11.4881C22.7275 9.68328 21.9071 7.89666 21.0867 6.0918C20.8862 5.65426 20.631 5.30788 20.1023 5.52665C18.8079 6.0918 17.5499 6.67519 16.2191 7.29504C18.498 12.3268 20.795 17.322 23.1104 22.3719Z" fill="#010101"/>
</svg>
