<svg width="18" height="18" viewBox="0 0 18 18" fill="none" xmlns="http://www.w3.org/2000/svg">
<path d="M1.07715 0.5H5.53906C5.66475 0.499984 5.78556 0.547586 5.87793 0.632812C5.94717 0.696774 5.99696 0.778432 6.02148 0.868164L6.03711 0.960938C6.16894 2.63781 6.6543 4.26813 7.46094 5.74414C7.51965 5.85139 7.53798 5.97651 7.51074 6.0957C7.48349 6.21483 7.41287 6.31955 7.31348 6.39062L6.0752 7.27539L5.70801 7.53711L5.93164 7.92969C6.91435 9.65599 8.34401 11.0856 10.0703 12.0684L10.4629 12.292L10.7246 11.9248L11.6094 10.6865C11.6805 10.5871 11.7852 10.5165 11.9043 10.4893C12.0235 10.462 12.1486 10.4803 12.2559 10.5391C13.7319 11.3457 15.3622 11.8311 17.0391 11.9629C17.1644 11.9728 17.2818 12.0297 17.3672 12.1221C17.4524 12.2144 17.5 12.3353 17.5 12.4609V16.9229C17.5 17.0466 17.4539 17.1659 17.3711 17.2578C17.309 17.3266 17.2294 17.3764 17.1416 17.4023L17.0508 17.4209C16.5384 17.4741 16.0212 17.5 15.5 17.5C7.21614 17.5 0.5 10.7839 0.5 2.5C0.5 2.10914 0.515144 1.72083 0.544922 1.33496L0.579102 0.949219C0.591729 0.826067 0.650285 0.71185 0.742188 0.628906C0.834066 0.546063 0.95343 0.499973 1.07715 0.5ZM16.5 12.9219L16.0732 12.8584C14.8518 12.6771 13.6624 12.3218 12.542 11.8027L12.166 11.6279L11.9248 11.9658L10.7979 13.543C10.3993 13.373 10.0097 13.182 9.63184 12.9697H9.63086L9.57617 12.9385C7.69293 11.8667 6.13333 10.3071 5.06152 8.42383L5.0293 8.36816H5.03027C4.81775 7.98989 4.62611 7.60014 4.45605 7.20117L6.03418 6.0752L6.37207 5.83398L6.19727 5.45801C5.67818 4.33755 5.32294 3.14823 5.1416 1.92676L5.07812 1.5H1.52734L1.51074 1.98242C1.50453 2.15434 1.50098 2.32718 1.50098 2.5L1.50586 2.86133C1.69655 10.4265 7.8887 16.5 15.5 16.5C15.6729 16.5 15.8475 16.4966 16.0215 16.4893L16.5 16.4697V12.9219Z" fill="#329DF9" stroke="#898F97"/>
</svg>
