<svg width="63" height="45" viewBox="0 0 63 45" fill="none" xmlns="http://www.w3.org/2000/svg">
<path d="M8.63613 22.8249C8.48949 10.5833 18.7125 -0.0198858 31.5316 2.80048e-05C44.4303 0.0199418 54.5067 10.7046 54.36 22.7561C55.4354 22.8122 56.5252 22.7742 57.5824 22.9389C60.9062 23.4603 63.2362 26.4818 62.9809 29.8382C62.7293 33.1402 59.9721 35.758 56.6411 35.8394C55.897 35.8575 55.1512 35.8413 54.3075 35.8413C54.3075 36.7935 54.3075 37.7095 54.3075 38.6274C54.3057 41.0768 53.0312 42.3621 50.5963 42.3621C48.3334 42.3639 46.0705 42.3694 43.8093 42.3567C43.4382 42.3549 43.2192 42.4327 43.0236 42.8038C42.4425 43.9136 41.4722 44.4802 40.223 44.5273C39.4555 44.5563 38.6842 44.5526 37.9148 44.5291C36.1461 44.473 34.7558 43.0283 34.7576 41.2741C34.7594 39.5199 36.1534 38.077 37.9221 38.0263C38.6915 38.0028 39.4609 38.001 40.2303 38.0282C41.4812 38.0734 42.448 38.6455 43.0273 39.7552C43.2246 40.1318 43.4473 40.1988 43.8166 40.197C46.1248 40.1861 48.4311 40.1933 50.7393 40.1897C51.7604 40.1879 52.1297 39.8186 52.1351 38.803C52.1405 37.8544 52.1369 36.9039 52.1369 35.8467C51.7875 35.8467 51.4599 35.8575 51.1322 35.8449C50.4044 35.8141 49.9736 35.4231 49.9718 34.708C49.9591 31.1325 49.9591 27.5589 49.9699 23.9835C49.9718 23.2286 50.399 22.8412 51.1684 22.8158C51.4599 22.8068 51.7513 22.814 52.1568 22.814C51.945 15.8731 49.2675 10.1778 43.6392 6.17874C36.6042 1.17856 29.0188 0.69158 21.4606 4.8427C14.5216 8.65348 11.1724 14.8485 10.8122 22.8158C11.2412 22.8158 11.5725 22.8013 11.902 22.8194C12.5863 22.8538 13.0208 23.2485 13.0226 23.9256C13.0371 27.5227 13.0335 31.1199 13.0262 34.717C13.0244 35.347 12.6732 35.8177 12.0577 35.8213C9.8219 35.8304 7.56259 35.9499 5.35216 35.6856C2.1044 35.2982 -0.18388 32.2224 0.0116376 28.8913C0.201724 25.6653 2.91724 22.9697 6.14871 22.8285C6.95975 22.7941 7.7744 22.8249 8.63613 22.8249ZM6.48362 25.0335C4.15733 24.9176 2.14241 26.9796 2.175 29.4055C2.20578 31.7535 4.28586 33.7974 6.48362 33.6127C6.48362 30.7524 6.48362 27.892 6.48362 25.0335ZM56.5035 33.6453C59.009 33.6598 60.9768 31.5218 60.8157 29.0253C60.6709 26.7588 58.5383 24.7927 56.5035 25.0697C56.5035 27.9083 56.5035 30.7488 56.5035 33.6453ZM8.74113 25.0118C8.74113 27.9355 8.74113 30.7922 8.74113 33.6399C9.46345 33.6399 10.1315 33.6399 10.823 33.6399C10.823 30.7488 10.823 27.8938 10.823 25.0118C10.1134 25.0118 9.44354 25.0118 8.74113 25.0118ZM52.1822 25.019C52.1822 27.9228 52.1822 30.7795 52.1822 33.6236C52.9136 33.6236 53.5997 33.6236 54.3075 33.6236C54.3075 30.8157 54.3075 28.0604 54.3057 25.3032C54.3057 25.2181 54.284 25.1331 54.2695 25.019C53.5743 25.019 52.9045 25.019 52.1822 25.019ZM39.1459 40.197C38.7621 40.197 38.3747 40.1752 37.9927 40.2024C37.3536 40.2458 36.9228 40.7093 36.9355 41.3031C36.9481 41.8679 37.3663 42.3259 37.9728 42.3531C38.7186 42.3857 39.4663 42.3857 40.2122 42.3549C40.8494 42.3295 41.2839 41.8444 41.2694 41.256C41.2567 40.6912 40.8367 40.2495 40.2321 40.2042C39.8718 40.1752 39.508 40.197 39.1459 40.197Z" fill="black"/>
</svg>
